# xmcd
# 
# Track frame offsets:
#     150
#     24847
#     43620
#     64625
#     82450
#     118267
#     134502
#     153202
#     174692
#     190517
#     214295
#     237235
#     252477
# 
# Disc length: 3910
# 
# Revision: 13
# Processed by: cddbd v1.5.2PL0 Copyright (c) Steve Scherf et al.
# Submitted via: BonkEnc v1.0.6
# 
DISCID=b80f440d
DTITLE=Renato Russo - Equilibrio Distante
DYEAR=1995
DGENRE=Pop
TTITLE0=Gente
TTITLE1=Strani Amori
TTITLE2=I Venti Del Cuore
TTITLE3=Scrivimi
TTITLE4=Dolcissima Maria
TTITLE5=Lettera
TTITLE6=La Solitudine
TTITLE7=Passerà
TTITLE8=Wave - Come Fa Un'onda
TTITLE9=La Forza Della Vita
TTITLE10=Due
TTITLE11=Più O Meno
TTITLE12=La Vita È Adesso
EXTD=YEAR: 1995
EXTT0=
EXTT1=
EXTT2=
EXTT3=
EXTT4=
EXTT5=
EXTT6=
EXTT7=
EXTT8=
EXTT9=
EXTT10=
EXTT11=
EXTT12=
PLAYORDER=
